<svg width="18" height="22" viewBox="0 0 18 22" fill="none" xmlns="http://www.w3.org/2000/svg">
<g clip-path="url(#clip0_0_2817)">
<path d="M18.0002 8.6605C17.9496 10.9113 17.1299 12.8571 15.561 14.5125C13.4873 16.702 11.5463 18.9931 9.79893 21.4345C9.25784 22.1903 8.76161 22.1857 8.21575 21.4382C6.41975 18.9776 4.49684 16.6232 2.38402 14.3971C0.0335822 11.919 -0.594347 8.97106 0.569899 5.8087C1.73605 2.6381 4.15616 0.719805 7.59927 0.127092C12.4748 -0.711134 17.2243 2.68024 17.8742 7.38805C17.9324 7.81037 17.9591 8.23635 18.0002 8.6605ZM9.03549 5.13171C6.9284 5.12255 5.20302 6.75411 5.19443 8.76494C5.18585 10.7923 6.87877 12.4458 8.97632 12.4568C11.0796 12.4687 12.8107 10.8307 12.8183 8.82265C12.825 6.79534 11.1311 5.14179 9.03549 5.13171Z" fill="#FF4D00"/>
<path d="M9.01428 10.9902C7.77369 10.9939 6.73445 10.0146 6.72109 8.82548C6.70678 7.61257 7.73742 6.60304 8.9971 6.59938C10.2587 6.59571 11.297 7.59517 11.2903 8.80899C11.2836 10.0017 10.2558 10.9865 9.01428 10.9902Z" fill="#FF4D00"/>
</g>
<defs>
<clipPath id="clip0_0_2817">
<rect width="18" height="22" fill="white"/>
</clipPath>
</defs>
</svg>
