<svg width="131" height="175" viewBox="0 0 131 175" fill="none" xmlns="http://www.w3.org/2000/svg">
<path d="M53.514 114.194H90.056C90.056 88.542 130.712 84.186 130.712 45.466C130.712 16.91 105.544 0.695997 69.244 0.695997C36.574 0.695997 13.826 13.28 0.758 33.124L30.04 50.306C37.784 39.174 49.642 32.398 65.13 32.398C80.86 32.398 91.266 39.9 91.266 51.758C91.266 72.812 53.514 80.314 53.514 114.194ZM71.906 174.936C85.458 174.936 95.138 165.014 95.138 152.914C95.138 140.572 85.458 131.376 71.906 131.376C58.354 131.376 48.674 140.572 48.674 152.914C48.674 165.014 58.354 174.936 71.906 174.936Z" fill="#F3F3F3"/>
</svg>
