<svg width="16" height="19" viewBox="0 0 16 19" fill="none" xmlns="http://www.w3.org/2000/svg">
<path d="M0.00356197 9.93654C0.00356197 12.4106 -0.00197411 14.8838 0.00633049 17.3579C0.0100212 18.4075 0.722404 19.0873 1.72915 18.9806C2.01521 18.9504 2.33357 18.8207 2.55135 18.6403C3.73158 17.669 4.88966 16.6719 6.04682 15.6739C6.50267 15.2811 6.929 14.8554 7.383 14.4599C7.82224 14.0778 8.06493 14.0778 8.5051 14.451C10.119 15.8223 11.7237 17.2051 13.3423 18.5719C14.2992 19.3797 15.6585 18.9913 15.9574 17.8351C15.9971 17.6796 15.999 17.5126 15.999 17.3508C16.0017 12.448 16.0036 7.5451 15.9999 2.64225C15.999 1.21769 14.9987 0.165497 13.5333 0.0259739C13.4115 0.014421 13.2878 0.00286819 13.1651 0.00286819C9.72039 0.0019795 6.27567 -0.00690731 2.83095 0.00642291C1.42648 0.011755 0.396665 0.750249 0.0912256 1.94552C0.0118666 2.25656 0.00817585 2.5916 0.00725269 2.91508C-0.0001297 5.25586 0.00356197 7.59665 0.00356197 9.93654Z" fill="#FF7F00"/>
</svg>
