<svg width="44" height="44" viewBox="0 0 44 44" fill="none" xmlns="http://www.w3.org/2000/svg">
<circle cx="22" cy="22" r="22" fill="#4E6297"/>
<path d="M31.8992 15.2001C31.8992 13.553 30.4459 12.0996 28.7987 12.0996H16.2997C14.6526 12.0996 13.1992 13.553 13.1992 15.2001V27.6991C13.1992 29.3462 14.6526 30.7996 16.2997 30.7996H22.5977V23.7266H20.2723V20.626H22.5977V19.3664C22.5977 17.2348 24.1479 15.3939 26.0857 15.3939H28.6049V18.4944H26.0857C25.7951 18.4944 25.5044 18.7851 25.5044 19.3664V20.626H28.6049V23.7266H25.5044V30.7996H28.7987C30.4459 30.7996 31.8992 29.3462 31.8992 27.6991V15.2001Z" fill="white"/>
</svg>
