<svg width="15" height="16" viewBox="0 0 15 16" fill="none" xmlns="http://www.w3.org/2000/svg">
<g clip-path="url(#clip0_0_2836)">
<path d="M7.5 15.4844C11.6421 15.4844 15 12.1265 15 7.98438C15 3.84224 11.6421 0.484375 7.5 0.484375C3.35786 0.484375 0 3.84224 0 7.98438C0 12.1265 3.35786 15.4844 7.5 15.4844Z" fill="#F0F0F0"/>
<path d="M15 7.98444C15 4.7597 12.9646 2.01063 10.1086 0.950928V15.018C12.9646 13.9582 15 11.2092 15 7.98444Z" fill="#D80027"/>
<path d="M0 7.98443C0 11.2092 2.03534 13.9582 4.89132 15.0179V0.950928C2.03534 2.01063 0 4.7597 0 7.98443Z" fill="#0052B4"/>
</g>
<defs>
<clipPath id="clip0_0_2836">
<rect width="15" height="15" fill="white" transform="translate(0 0.484375)"/>
</clipPath>
</defs>
</svg>
