<svg width="22" height="22" viewBox="0 0 22 22" fill="none" xmlns="http://www.w3.org/2000/svg">
<path d="M16.4403 22.0001C14.9399 21.8313 13.6085 21.4303 12.3645 20.7972C6.92051 18.0253 2.8759 13.9303 0.60001 8.21121C0.309665 7.48268 0.170006 6.689 0.0211588 5.91368C-0.0312134 5.63841 0.0184024 5.28424 0.155305 5.04109C1.1513 3.26931 2.42844 1.72324 3.9941 0.415742C4.89729 -0.339399 5.69757 0.0377126 6.15146 0.729542C7.0372 2.08017 7.86137 3.47025 8.69657 4.85299C8.8445 5.09798 8.92811 5.38242 9.0301 5.6531C9.24326 6.21372 9.11738 6.70827 8.69014 7.11475C8.29229 7.49369 7.88066 7.85979 7.45801 8.21121C7.26506 8.37178 7.21361 8.50758 7.311 8.75348C8.43011 11.5942 10.4037 13.5752 13.264 14.6588C13.3963 14.7093 13.6462 14.6405 13.7519 14.5368C14.0992 14.1945 14.4079 13.8128 14.7276 13.4431C15.244 12.8467 15.8743 12.6861 16.5781 13.0329C17.4666 13.4706 18.3468 13.9303 19.2013 14.4303C19.8858 14.8304 20.5373 15.2901 21.186 15.7479C21.9688 16.3003 22.3758 17.0848 21.5268 18.0675C20.2258 19.5732 18.7125 20.8192 16.9861 21.8065C16.795 21.9166 16.5643 21.957 16.4403 22.0001Z" fill="#FF4D00"/>
</svg>
