<svg width="22" height="18" viewBox="0 0 22 18" fill="none" xmlns="http://www.w3.org/2000/svg">
<path d="M0.000955588 4.08008C2.52695 5.74762 4.93628 7.33769 7.3447 8.9287C8.37163 9.60706 9.40315 10.2779 10.4163 10.9779C10.8306 11.2642 11.1759 11.2519 11.5902 10.9742C14.5167 9.01279 17.4514 7.06181 20.3898 5.11934C20.8849 4.79244 21.4131 4.51846 21.9688 4.19534C21.9798 4.3484 21.9982 4.47878 21.9982 4.60821C22 8.11052 22.0019 11.6128 21.9982 15.1142C21.9964 16.7921 20.8298 17.9958 19.1994 17.9967C13.7304 17.9996 8.2614 18.0005 2.7924 17.9967C1.18679 17.9958 0.00462976 16.7921 0.00279267 15.1529C-0.00271858 11.6355 0.000955588 8.11713 0.000955588 4.59971C0.000955588 4.47783 0.000955588 4.35595 0.000955588 4.08008Z" fill="#FF4D00"/>
<path d="M11.0042 0.000745722C13.7525 0.000745722 16.5007 -0.00303341 19.2499 0.00263529C20.4762 0.00546964 21.4802 0.763186 21.8549 1.92149C21.9495 2.21248 21.933 2.39861 21.6483 2.58095C20.6002 3.25269 19.5742 3.96033 18.5316 4.64247C16.1425 6.20703 13.7451 7.75742 11.3615 9.33143C11.0841 9.51471 10.9013 9.50338 10.6349 9.32481C8.51586 7.90102 6.39219 6.48385 4.25934 5.08085C2.97889 4.2381 1.68558 3.41519 0.384926 2.60362C0.090993 2.42034 0.0413917 2.23421 0.147024 1.91488C0.528219 0.759407 1.53035 0.00546964 2.75844 0.00263529C5.50672 -0.00303341 8.255 0.000745722 11.0042 0.000745722Z" fill="#FF4D00"/>
</svg>
