<svg width="17" height="15" viewBox="0 0 17 15" fill="none" xmlns="http://www.w3.org/2000/svg">
<path fill-rule="evenodd" clip-rule="evenodd" d="M0.0976562 0.99668C0.0976562 0.499623 0.5006 0.0966797 0.997656 0.0966797H2.58107C2.98693 0.0966797 3.34257 0.368319 3.44936 0.759874L3.92829 2.51593L15.3076 3.26546C15.7806 3.29662 16.1484 3.68942 16.1484 4.16352V8.91377C16.1484 9.38406 15.7863 9.77505 15.3174 9.81112L5.02523 10.6028C4.59481 10.6359 4.2015 10.3588 4.08791 9.94229L2.36055 3.60861L1.89366 1.89668H0.997656C0.5006 1.89668 0.0976562 1.49374 0.0976562 0.99668ZM6.62158 4.73724C6.50103 4.25502 6.01239 3.96184 5.53017 4.08239C5.04796 4.20294 4.75477 4.69159 4.87532 5.1738L5.66703 8.34064C5.78759 8.82285 6.27623 9.11604 6.75844 8.99548C7.24066 8.87493 7.53384 8.38629 7.41329 7.90407L6.62158 4.73724ZM9.18332 4.2622C9.67538 4.1919 10.1313 4.53381 10.2016 5.02587L10.5974 7.79686C10.6677 8.28892 10.3258 8.74479 9.83374 8.81509C9.34167 8.88538 8.8858 8.54347 8.8155 8.05141L8.41965 5.28043C8.34935 4.78837 8.69126 4.33249 9.18332 4.2622ZM13.7737 5.35126C13.7737 4.8542 13.3708 4.45126 12.8737 4.45126C12.3766 4.45126 11.9737 4.8542 11.9737 5.35126V7.72639C11.9737 8.22344 12.3766 8.62639 12.8737 8.62639C13.3708 8.62639 13.7737 8.22344 13.7737 7.72639V5.35126Z" fill="#FF7F00"/>
<circle cx="6.54045" cy="12.8725" r="1.58342" fill="#FF7F00"/>
<circle cx="12.8725" cy="12.8725" r="1.58342" fill="#FF7F00"/>
</svg>
