<svg width="17" height="10" viewBox="0 0 17 10" fill="none" xmlns="http://www.w3.org/2000/svg">
<g clip-path="url(#clip0_0_717)">
<path d="M8.40084 9.91383C5.94781 9.89556 3.88686 8.88682 2.12248 7.18383C1.56075 6.64096 1.07316 6.01327 0.567976 5.40776C0.329207 5.12067 0.326694 4.83227 0.536559 4.54648C1.93398 2.64644 3.62798 1.14181 5.86361 0.420162C8.5064 -0.433289 10.9745 0.0404156 13.2692 1.59594C14.4165 2.37371 15.3704 3.36809 16.1973 4.49689C16.4323 4.81661 16.4473 5.08805 16.2262 5.38819C14.8061 7.31433 13.0845 8.83331 10.8023 9.52886C10.0295 9.76376 9.21391 9.84858 8.41718 10.0013C8.41341 9.97125 8.40712 9.94254 8.40084 9.91383ZM5.03169 4.96146C5.03295 6.89282 6.53844 8.45748 8.39581 8.45487C10.2293 8.45226 11.7386 6.88238 11.7423 4.97321C11.7449 3.03663 10.2482 1.46936 8.39204 1.46544C6.53844 1.46283 5.03169 3.03011 5.03169 4.96146Z" fill="#8A8A8A"/>
<path d="M10.1929 4.93665C10.2004 5.9741 9.39361 6.83277 8.40586 6.83799C7.39927 6.84321 6.59248 6.02239 6.58117 4.97971C6.56986 3.95139 7.38419 3.0862 8.37068 3.07576C9.3735 3.06662 10.1866 3.89659 10.1929 4.93665Z" fill="#8A8A8A"/>
</g>
<defs>
<clipPath id="clip0_0_717">
<rect width="16" height="10" fill="white" transform="translate(0.384766)"/>
</clipPath>
</defs>
</svg>
