<svg width="44" height="44" viewBox="0 0 44 44" fill="none" xmlns="http://www.w3.org/2000/svg">
<circle cx="22" cy="22" r="22" fill="#55ACE3"/>
<path d="M33.6596 16.3908C32.8896 16.7208 32.0096 16.9408 31.1296 17.0508C32.0096 16.5008 32.7796 15.6208 33.1096 14.6308C32.2296 15.1808 31.3496 15.5108 30.2496 15.7308C29.4796 14.8508 28.2696 14.3008 27.0596 14.3008C24.6396 14.3008 22.6596 16.2808 22.6596 18.7008C22.6596 19.0308 22.6596 19.3608 22.7696 19.6908C19.1396 19.4708 15.8396 17.7108 13.6396 15.0708C13.3096 15.7308 13.0896 16.5008 13.0896 17.2708C13.0896 18.8108 13.8596 20.1308 15.0696 20.9008C14.2996 20.9008 13.6396 20.6808 13.0896 20.3508C13.0896 22.4408 14.6296 24.3108 16.6096 24.6408C16.2796 24.7508 15.8396 24.7508 15.3996 24.7508C15.0696 24.7508 14.8496 24.7508 14.5196 24.6408C15.0696 26.4008 16.7196 27.7208 18.6996 27.7208C17.1596 28.9308 15.2896 29.5908 13.1996 29.5908C12.8696 29.5908 12.5396 29.5908 12.0996 29.4808C14.0796 30.6908 16.3896 31.4608 18.9196 31.4608C27.0596 31.4608 31.4596 24.7508 31.4596 18.9208V18.3708C32.3396 18.0408 33.1096 17.2708 33.6596 16.3908Z" fill="white"/>
</svg>
