<svg width="44" height="44" viewBox="0 0 44 44" fill="none" xmlns="http://www.w3.org/2000/svg">
<circle cx="22" cy="22" r="22" fill="url(#paint0_linear_0_740)"/>
<path d="M29.2381 13.1992H15.8604C14.35 13.1992 13.1992 14.35 13.1992 15.8604V29.2381C13.1992 30.7484 14.35 31.8992 15.8604 31.8992H29.2381C30.7485 31.8992 31.8992 30.7484 31.8992 29.2381V15.8604C31.8992 14.35 30.7485 13.1992 29.2381 13.1992ZM22.5492 28.1592C25.6419 28.1592 28.1592 25.7138 28.1592 22.765C28.1592 22.2615 28.0873 21.6861 27.9434 21.2546H29.5258V28.8784C29.5258 29.2381 29.2381 29.5977 28.8065 29.5977H16.2919C15.9323 29.5977 15.5727 29.31 15.5727 28.8784V21.1827H17.2269C17.0831 21.6861 17.0111 22.1896 17.0111 22.6931C16.9392 25.7138 19.4565 28.1592 22.5492 28.1592ZM22.5492 26.0015C20.5354 26.0015 18.9531 24.4192 18.9531 22.4773C18.9531 20.5354 20.5354 18.9531 22.5492 18.9531C24.5631 18.9531 26.1454 20.5354 26.1454 22.4773C26.1454 24.4911 24.5631 26.0015 22.5492 26.0015ZM29.4538 18.3058C29.4538 18.7373 29.0942 19.0969 28.6627 19.0969H26.6488C26.2173 19.0969 25.8577 18.7373 25.8577 18.3058V16.3638C25.8577 15.9323 26.2173 15.5727 26.6488 15.5727H28.6627C29.0942 15.5727 29.4538 15.9323 29.4538 16.3638V18.3058Z" fill="white"/>
<defs>
<linearGradient id="paint0_linear_0_740" x1="9.35" y1="39.05" x2="38.5" y2="8.8" gradientUnits="userSpaceOnUse">
<stop stop-color="#EEA054"/>
<stop offset="0.502762" stop-color="#D64763"/>
<stop offset="1" stop-color="#B62A99"/>
</linearGradient>
</defs>
</svg>
