<svg width="44" height="44" viewBox="0 0 44 44" fill="none" xmlns="http://www.w3.org/2000/svg">
<circle cx="22" cy="22" r="22" fill="#BE1326"/>
<path d="M28.6066 14.206C27.2024 12.8017 25.1838 12.0996 22.9896 12.0996C19.6545 12.0996 17.6359 13.5039 16.4949 14.6448C15.0907 16.0491 14.3008 17.8922 14.3008 19.823C14.3008 22.1927 15.2662 23.948 16.9338 24.6502C17.0215 24.7379 17.1971 24.7379 17.2848 24.7379C17.6359 24.7379 17.8992 24.4746 17.987 24.1236C18.0747 23.948 18.1625 23.4214 18.2503 23.1581C18.338 22.7193 18.2503 22.5438 17.987 22.1927C17.5481 21.6661 17.2848 20.964 17.2848 20.0863C17.2848 17.5411 19.2157 14.8204 22.7263 14.8204C25.5348 14.8204 27.2901 16.4001 27.2901 18.9454C27.2901 20.5251 26.9391 22.0172 26.3247 23.1581C25.8859 23.948 25.096 24.8257 23.955 24.8257C23.4284 24.8257 22.9896 24.6502 22.7263 24.2113C22.463 23.8603 22.3752 23.4214 22.463 22.9826C22.5508 22.456 22.7263 21.9294 22.9018 21.4028C23.1651 20.4374 23.5162 19.472 23.5162 18.7698C23.5162 17.5411 22.7263 16.6634 21.5854 16.6634C20.0933 16.6634 18.9524 18.1555 18.9524 19.9986C18.9524 20.964 19.2157 21.5783 19.3035 21.8416C19.1279 22.6315 17.987 27.2831 17.8114 28.073C17.7237 28.5996 16.9338 32.6369 18.1625 32.9002C19.479 33.2512 20.7077 29.3018 20.7955 28.8629C20.8832 28.5119 21.2343 27.1076 21.4098 26.3177C22.0242 26.9321 23.0774 27.3709 24.1306 27.3709C26.0614 27.3709 27.729 26.4932 28.9577 24.9135C30.0987 23.4214 30.8008 21.315 30.8008 18.9454C30.713 17.3656 30.0109 15.5225 28.6066 14.206Z" fill="white"/>
</svg>
