<svg width="15" height="16" viewBox="0 0 15 16" fill="none" xmlns="http://www.w3.org/2000/svg">
<g clip-path="url(#clip0_0_2829)">
<path d="M7.5 15.6182C11.6421 15.6182 15 12.2603 15 8.11816C15 3.97603 11.6421 0.618164 7.5 0.618164C3.35786 0.618164 0 3.97603 0 8.11816C0 12.2603 3.35786 15.6182 7.5 15.6182Z" fill="#F0F0F0"/>
<path d="M5.86941 7.13991H14.9363C14.4569 3.46002 11.3104 0.618164 7.49981 0.618164C6.9398 0.618164 6.39438 0.680068 5.86938 0.796436V7.13991H5.86941Z" fill="#D80027"/>
<path d="M3.91303 7.13995V1.53015C1.85366 2.6538 0.379385 4.71487 0.0634766 7.13997H3.91303V7.13995Z" fill="#D80027"/>
<path d="M3.913 9.09644H0.0634766C0.379385 11.5215 1.85366 13.5826 3.91303 14.7062L3.913 9.09644Z" fill="#D80027"/>
<path d="M5.86938 9.09647V15.4399C6.39438 15.5563 6.9398 15.6182 7.49981 15.6182C11.3104 15.6182 14.4569 12.7763 14.9363 9.09644H5.86938V9.09647Z" fill="#D80027"/>
</g>
<defs>
<clipPath id="clip0_0_2829">
<rect width="15" height="15" fill="white" transform="translate(0 0.618164)"/>
</clipPath>
</defs>
</svg>
