<svg width="15" height="16" viewBox="0 0 15 16" fill="none" xmlns="http://www.w3.org/2000/svg">
<g clip-path="url(#clip0_0_2841)">
<path d="M0.466553 11.0374C1.52625 13.935 4.27532 16 7.50006 16C10.7248 16 13.4739 13.935 14.5336 11.0374L7.50006 10.3757L0.466553 11.0374Z" fill="#FFDA44"/>
<path d="M7.50006 0.78125C4.27532 0.78125 1.52625 2.84624 0.466553 5.7439L7.50006 6.40556L14.5336 5.74387C13.4739 2.84624 10.7248 0.78125 7.50006 0.78125Z" fill="black"/>
<path d="M0.466494 5.7439C0.165029 6.56824 0 7.45984 0 8.39062C0 9.3214 0.165029 10.213 0.466494 11.0373H14.5335C14.835 10.213 15 9.3214 15 8.39062C15 7.45984 14.835 6.56824 14.5335 5.7439H0.466494Z" fill="#D80027"/>
</g>
<defs>
<clipPath id="clip0_0_2841">
<rect width="15" height="15.2188" fill="white" transform="translate(0 0.78125)"/>
</clipPath>
</defs>
</svg>
